<?xml version="1.0" encoding="utf-8"?>
<!-- Generator: Adobe Illustrator 15.0.0, SVG Export Plug-In  -->
<!DOCTYPE svg PUBLIC "-//W3C//DTD SVG 1.1//EN" "http://www.w3.org/Graphics/SVG/1.1/DTD/svg11.dtd" [
	<!ENTITY ns_flows "http://ns.adobe.com/Flows/1.0/">
]>
<svg version="1.1"
	 xmlns="http://www.w3.org/2000/svg" xmlns:xlink="http://www.w3.org/1999/xlink" xmlns:a="http://ns.adobe.com/AdobeSVGViewerExtensions/3.0/"
	 x="0px" y="0px" width="800px" height="600px" viewBox="-76.122 -34.599 800 600" enable-background="new -76.122 -34.599 800 600"
	 xml:space="preserve">
<defs>
</defs>
<path fill="none" stroke="#2ECC71" stroke-width="70" stroke-miterlimit="10" d="M324,179.688c55.229,0,100,44.771,100,100
	s-44.771,100-100,100c-55.228,0-84.121-42.287-94.788-99v1c-9-50.954-38.983-100-94.212-100s-100,44.771-100,100s44.771,100,100,100
	"/>
<path fill="#2ECC77" d="M694.749,329.852c0,26.319-9.716,47.704-29.14,64.155c-19.432,16.449-45.12,24.674-77.08,24.674
	c-39.172,0-69.325-7.445-90.476-22.324c-21.149-14.879-32.511-36.109-34.075-63.686h64.86c2.504,12.852,10.81,22.406,24.91,28.67
	c10.964,5.332,23.97,7.99,39.01,7.99c9.709,0,17.779-2.68,24.205-8.049c6.419-5.36,9.635-11.838,9.635-19.416
	c0-7.579-2.188-13.102-6.558-16.575c-3.437-2.526-11.082-5.522-22.942-8.996l-74.318-21.407
	c-32.937-9.701-49.401-31.762-49.401-66.189c0-24.095,9.4-43.497,28.2-58.207c18.8-14.702,44.804-22.061,78.02-22.061
	c32.269,0,58.354,7.836,78.255,23.5c19.895,15.672,30,36.66,30.315,62.98h-63.45c0.94-10.964-2.9-19.813-11.515-26.555
	c-8.622-6.734-21.547-10.105-38.775-10.105c-9.399,0-17.706,2.196-24.91,6.58c-8.46,4.7-12.689,10.81-12.689,18.33
	c0,8.46,2.819,13.476,8.46,15.04l94,25.85C676.257,274.083,694.749,296.011,694.749,329.852z"/>
<path fill="#2ECC71" d="M236.47,215c0,19.33-15.67,35-35,35l0,0c-19.33,0-35-15.67-35-35V35c0-19.33,15.67-35,35-35l0,0
	c19.33,0,35,15.67,35,35V215z"/>
</svg>
